<?xml version="1.0" encoding="UTF-8" standalone="no"?>
<svg
   xmlns:dc="http://purl.org/dc/elements/1.1/"
   xmlns:cc="http://creativecommons.org/ns#"
   xmlns:rdf="http://www.w3.org/1999/02/22-rdf-syntax-ns#"
   xmlns:svg="http://www.w3.org/2000/svg"
   xmlns="http://www.w3.org/2000/svg"
   xmlns:sodipodi="http://sodipodi.sourceforge.net/DTD/sodipodi-0.dtd"
   xmlns:inkscape="http://www.inkscape.org/namespaces/inkscape"
   version="1.1"
   id="svg2"
   xml:space="preserve"
   width="964.90265"
   height="238.78532"
   viewBox="0 0 964.90265 238.78532"
   sodipodi:docname="svg vector.ai"><metadata
     id="metadata8"><rdf:RDF><cc:Work
         rdf:about=""><dc:format>image/svg+xml</dc:format><dc:type
           rdf:resource="http://purl.org/dc/dcmitype/StillImage" /></cc:Work></rdf:RDF></metadata><defs
     id="defs6"><clipPath
       clipPathUnits="userSpaceOnUse"
       id="clipPath26"><path
         d="M 0,179.089 H 723.677 V 0 H 0 Z"
         id="path24" /></clipPath></defs><sodipodi:namedview
     pagecolor="#ffffff"
     bordercolor="#666666"
     borderopacity="1"
     objecttolerance="10"
     gridtolerance="10"
     guidetolerance="10"
     inkscape:pageopacity="0"
     inkscape:pageshadow="2"
     inkscape:window-width="640"
     inkscape:window-height="480"
     id="namedview4" /><g
     id="g10"
     inkscape:groupmode="layer"
     inkscape:label="svg vector"
     transform="matrix(1.3333333,0,0,-1.3333333,0,238.78533)"><g
       id="g12"
       transform="translate(205.0959,179.0883)"><path
         d="M 0,0 -93.71,-150.065 -187.966,0 h -0.026 L -205.096,-0.599 -93.71,-179.088 19.037,0 Z"
         style="fill:#bf9a36;fill-opacity:1;fill-rule:nonzero;stroke:none"
         id="path14" /></g><g
       id="g16"
       transform="translate(36.6188,179.0883)"><path
         d="m 0,0 30.45,-51.489 44.434,-68.578 22.747,37.484 -17.13,0.526 -5.852,-9.365 -23.854,36.811 64.836,-0.045 9.594,15.162 -84.154,0.262 -14.104,23.851 H 140.163 L 149.8,0 Z"
         style="fill:#bf9a36;fill-opacity:1;fill-rule:nonzero;stroke:none"
         id="path18" /></g><g
       id="g20"><g
         id="g22"
         clip-path="url(#clipPath26)"><g
           id="g28"
           transform="translate(286.905,159.1663)"><path
             d="M 0,0 H -8.235 C -8.962,0 -9.447,-0.484 -9.608,-0.889 L -25.112,-35.61 h -0.566 L -41.182,-0.889 C -41.344,-0.484 -41.828,0 -42.555,0 h -8.236 c -1.212,0 -1.857,-1.049 -1.373,-2.099 l 24.951,-54.344 c 0.242,-0.486 0.647,-0.889 1.373,-0.889 h 0.809 c 0.726,0 1.131,0.403 1.373,0.889 L 1.374,-2.099 C 1.858,-1.049 1.212,0 0,0"
             style="fill:#bf9a36;fill-opacity:1;fill-rule:nonzero;stroke:none"
             id="path30" /></g><g
           id="g32"
           transform="translate(305.3152,102.6419)"><path
             d="m 0,0 h 7.511 c 0.805,0 1.533,0.727 1.533,1.534 v 53.457 c 0,0.807 -0.728,1.533 -1.533,1.533 H 0 c -0.808,0 -1.534,-0.726 -1.534,-1.533 V 1.534 C -1.534,0.727 -0.808,0 0,0"
             style="fill:#bf9a36;fill-opacity:1;fill-rule:nonzero;stroke:none"
             id="path34" /></g><g
           id="g36"
           transform="translate(347.7888,149.4769)"><path
             d="m 0,0 h 13.163 c 4.279,0 7.993,-3.554 7.993,-7.833 0,-4.521 -3.714,-8.236 -7.993,-8.236 l -13.163,0 z m 19.622,-46.108 c 0.161,-0.324 0.565,-0.727 1.292,-0.727 h 8.48 c 1.372,0 1.937,1.292 1.372,2.342 l -11.064,20.51 c 7.027,2.827 11.952,8.883 11.952,16.312 0,9.608 -7.913,17.36 -17.602,17.36 H -9.044 c -0.889,0 -1.535,-0.726 -1.535,-1.533 v -53.457 c 0,-0.807 0.646,-1.534 1.535,-1.534 h 7.43 c 0.806,0 1.533,0.727 1.533,1.534 v 20.591 h 8.965 z"
             style="fill:#bf9a36;fill-opacity:1;fill-rule:nonzero;stroke:none"
             id="path38" /></g><g
           id="g40"
           transform="translate(408.1873,159.1663)"><path
             d="M 0,0 H -7.509 C -8.316,0 -9.044,-0.727 -9.044,-1.533 V -54.99 c 0,-0.808 0.728,-1.534 1.535,-1.534 H 0 c 0.808,0 1.534,0.726 1.534,1.534 V -1.533 C 1.534,-0.727 0.808,0 0,0"
             style="fill:#bf9a36;fill-opacity:1;fill-rule:nonzero;stroke:none"
             id="path42" /></g><g
           id="g44"
           transform="translate(452.1951,112.4935)"><path
             d="M 0,0 H -9.205 V 36.902 H 0 c 10.497,0 18.169,-7.913 18.169,-18.411 C 18.169,7.913 10.497,0 0,0 m 0.969,46.673 h -19.137 c -0.808,0 -1.454,-0.727 -1.454,-1.533 V -8.317 c 0,-0.808 0.646,-1.535 1.454,-1.535 H 0.969 c 15.585,0 28.343,12.678 28.343,28.343 0,15.504 -12.758,28.182 -28.343,28.182"
             style="fill:#bf9a36;fill-opacity:1;fill-rule:nonzero;stroke:none"
             id="path46" /></g><g
           id="g48"
           transform="translate(501.8552,102.6419)"><path
             d="m 0,0 h 7.511 c 0.807,0 1.535,0.727 1.535,1.534 v 53.457 c 0,0.807 -0.728,1.533 -1.535,1.533 H 0 c -0.808,0 -1.533,-0.726 -1.533,-1.533 V 1.534 C -1.533,0.727 -0.808,0 0,0"
             style="fill:#bf9a36;fill-opacity:1;fill-rule:nonzero;stroke:none"
             id="path50" /></g><g
           id="g52"
           transform="translate(545.0554,121.9417)"><path
             d="M 0,0 7.914,17.765 H 8.156 L 16.23,0 Z m 24.146,-17.686 c 0.565,-1.129 1.13,-1.614 2.34,-1.614 h 7.026 c 1.212,0 1.858,1.05 1.373,2.1 L 10.013,37.145 C 9.771,37.629 9.449,38.032 8.641,38.032 H 7.833 c -0.727,0 -1.131,-0.403 -1.373,-0.887 L -18.652,-17.2 c -0.486,-1.05 0.161,-2.1 1.373,-2.1 h 7.023 c 1.293,0 2.02,0.808 2.343,1.614 l 3.956,8.722 h 24.144 z"
             style="fill:#bf9a36;fill-opacity:1;fill-rule:nonzero;stroke:none"
             id="path54" /></g><g
           id="g56"
           transform="translate(641.6335,101.8343)"><path
             d="m 0,0 c 0.806,0 1.533,0.646 1.533,1.454 v 54.345 c 0,0.806 -0.727,1.533 -1.533,1.533 h -7.43 c -0.888,0 -1.535,-0.727 -1.535,-1.533 V 22.449 H -9.046 L -42.637,58.14 h -2.019 c -0.808,0 -1.533,-0.646 -1.533,-1.454 V 2.342 c 0,-0.808 0.725,-1.534 1.533,-1.534 h 7.349 c 0.888,0 1.535,0.726 1.535,1.534 v 34.722 h 0.081 L -1.939,0 Z"
             style="fill:#bf9a36;fill-opacity:1;fill-rule:nonzero;stroke:none"
             id="path58" /></g><g
           id="g60"
           transform="translate(276.489,76.4476)"><path
             d="m 0,0 h -32.864 c -0.889,0 -1.535,-0.727 -1.535,-1.533 V -54.99 c 0,-0.809 0.646,-1.535 1.535,-1.535 H 0 c 0.889,0 1.534,0.726 1.534,1.535 v 6.62 c 0,0.807 -0.645,1.534 -1.534,1.534 h -23.901 v 14.133 h 19.944 c 0.809,0 1.535,0.646 1.535,1.533 v 6.703 c 0,0.808 -0.726,1.534 -1.535,1.534 H -23.901 V -9.689 H 0 c 0.889,0 1.534,0.727 1.534,1.534 v 6.622 C 1.534,-0.727 0.889,0 0,0"
             style="fill:#bf9a36;fill-opacity:1;fill-rule:nonzero;stroke:none"
             id="path62" /></g><g
           id="g64"
           transform="translate(322.1931,48.9124)"><path
             d="m 0,0 16.23,25.274 c 0.647,1.051 0,2.261 -1.373,2.261 H 5.491 c -0.646,0 -1.131,-0.403 -1.293,-0.726 L -6.299,9.689 H -6.38 l -10.336,17.12 c -0.242,0.323 -0.646,0.726 -1.291,0.726 h -9.368 c -1.371,0 -2.018,-1.21 -1.371,-2.261 L -12.597,0 -29.393,-26.729 c -0.646,-1.049 0,-2.261 1.455,-2.261 h 8.72 c 0.646,0 1.131,0.404 1.373,0.726 l 11.384,18.493 h 0.242 L 5.329,-28.264 c 0.162,-0.322 0.728,-0.726 1.373,-0.726 h 8.721 c 1.373,0 2.019,1.131 1.373,2.261 z"
             style="fill:#bf9a36;fill-opacity:1;fill-rule:nonzero;stroke:none"
             id="path66" /></g><g
           id="g68"
           transform="translate(395.9177,34.2952)"><path
             d="m 0,0 c -0.484,0.484 -1.373,0.565 -2.02,0 -3.39,-2.744 -7.51,-4.603 -12.355,-4.603 -10.336,0 -18.087,8.561 -18.087,18.655 0,10.175 7.67,18.815 18.007,18.815 4.523,0 9.045,-1.777 12.435,-4.764 0.647,-0.646 1.455,-0.646 2.02,0 l 4.926,5.087 c 0.646,0.645 0.646,1.615 -0.081,2.261 -5.491,4.926 -11.386,7.51 -19.543,7.51 -16.149,0 -29.15,-13.001 -29.15,-29.151 0,-16.151 13.001,-28.991 29.15,-28.991 7.187,0 14.133,2.504 19.624,7.834 0.565,0.566 0.727,1.614 0.081,2.179 z"
             style="fill:#bf9a36;fill-opacity:1;fill-rule:nonzero;stroke:none"
             id="path70" /></g><g
           id="g72"
           transform="translate(465.4402,76.4476)"><path
             d="m 0,0 h -7.43 c -0.886,0 -1.532,-0.727 -1.532,-1.533 v -21.4 h -26.325 v 21.4 c 0,0.806 -0.647,1.533 -1.534,1.533 h -7.509 c -0.809,0 -1.535,-0.727 -1.535,-1.533 V -54.99 c 0,-0.809 0.726,-1.535 1.535,-1.535 h 7.509 c 0.887,0 1.534,0.726 1.534,1.535 v 22.287 H -8.962 V -54.99 c 0,-0.809 0.646,-1.535 1.532,-1.535 H 0 c 0.809,0 1.535,0.726 1.535,1.535 V -1.533 C 1.535,-0.727 0.809,0 0,0"
             style="fill:#bf9a36;fill-opacity:1;fill-rule:nonzero;stroke:none"
             id="path74" /></g><g
           id="g76"
           transform="translate(501.1316,39.223)"><path
             d="M 0,0 7.913,17.765 H 8.155 L 16.231,0 Z M 10.014,37.145 C 9.771,37.629 9.447,38.033 8.64,38.033 H 7.832 c -0.725,0 -1.129,-0.404 -1.371,-0.888 L -18.654,-17.2 c -0.485,-1.051 0.162,-2.101 1.373,-2.101 h 7.026 c 1.292,0 2.018,0.808 2.341,1.615 l 3.958,8.721 h 24.143 l 3.958,-8.721 c 0.564,-1.13 1.13,-1.615 2.341,-1.615 h 7.025 c 1.212,0 1.857,1.05 1.373,2.101 z"
             style="fill:#bf9a36;fill-opacity:1;fill-rule:nonzero;stroke:none"
             id="path78" /></g><g
           id="g80"
           transform="translate(597.7097,76.4476)"><path
             d="M 0,0 H -7.43 C -8.318,0 -8.964,-0.727 -8.964,-1.533 V -34.884 H -9.045 L -42.636,0.809 h -2.019 c -0.808,0 -1.533,-0.647 -1.533,-1.455 V -54.99 c 0,-0.809 0.725,-1.535 1.533,-1.535 h 7.348 c 0.889,0 1.536,0.726 1.536,1.535 v 34.722 h 0.08 L -1.938,-57.333 H 0 c 0.807,0 1.533,0.646 1.533,1.454 V -1.533 C 1.533,-0.727 0.807,0 0,0"
             style="fill:#bf9a36;fill-opacity:1;fill-rule:nonzero;stroke:none"
             id="path82" /></g><g
           id="g84"
           transform="translate(666.2634,47.9437)"><path
             d="m 0,0 h -15.504 c -0.889,0 -1.535,-0.646 -1.535,-1.535 v -6.38 c 0,-0.806 0.646,-1.452 1.535,-1.452 h 6.46 v -6.864 c -1.615,-0.647 -5.087,-2.02 -9.608,-2.02 -10.175,0 -18.17,8.48 -18.17,18.493 0,10.094 7.995,18.735 18.089,18.735 4.441,0 8.72,-1.617 12.192,-4.684 0.727,-0.647 1.454,-0.647 2.101,0 l 5.005,5.249 c 0.647,0.645 0.566,1.614 -0.081,2.261 -5.491,4.682 -12.435,7.509 -19.702,7.509 -16.069,0 -28.99,-13 -28.99,-29.151 0,-16.15 12.921,-28.909 28.99,-28.909 11.707,0 20.026,5.248 20.026,5.248 0.323,0.242 0.646,0.646 0.646,1.293 V -1.535 C 1.454,-0.728 0.808,0 0,0"
             style="fill:#bf9a36;fill-opacity:1;fill-rule:nonzero;stroke:none"
             id="path86" /></g><g
           id="g88"
           transform="translate(722.1423,66.7581)"><path
             d="M 0,0 C 0.888,0 1.534,0.728 1.534,1.534 V 8.156 C 1.534,8.963 0.888,9.689 0,9.689 h -32.866 c -0.889,0 -1.533,-0.726 -1.533,-1.533 v -53.457 c 0,-0.808 0.644,-1.535 1.533,-1.535 H 0 c 0.888,0 1.534,0.727 1.534,1.535 v 6.62 c 0,0.808 -0.646,1.535 -1.534,1.535 h -23.901 v 14.132 h 19.945 c 0.808,0 1.532,0.647 1.532,1.534 v 6.703 c 0,0.807 -0.724,1.534 -1.532,1.534 H -23.901 V 0 Z"
             style="fill:#bf9a36;fill-opacity:1;fill-rule:nonzero;stroke:none"
             id="path90" /></g></g></g></g></svg>
